<svg width="25" height="26" viewBox="0 0 25 26" fill="none" xmlns="http://www.w3.org/2000/svg">
<g id="key" clip-path="url(#clip0_83_5780)">
<path id="Vector" d="M25 8.78325C25 13.5294 21.1524 17.377 16.4062 17.377C15.8584 17.377 15.3228 17.3251 14.8034 17.2271L13.6309 18.5461C13.521 18.6698 13.3861 18.7688 13.2351 18.8366C13.0841 18.9044 12.9205 18.9395 12.755 18.9395H10.9375V20.8926C10.9375 21.5398 10.4128 22.0645 9.76562 22.0645H7.8125V24.0176C7.8125 24.6648 7.28784 25.1895 6.64062 25.1895H1.17188C0.524658 25.1895 0 24.6648 0 24.0176V20.2061C0 19.8953 0.123486 19.5972 0.343213 19.3774L8.2437 11.477C7.96426 10.6296 7.8125 9.72417 7.8125 8.7832C7.8125 4.03701 11.66 0.189502 16.4062 0.189453C21.1664 0.189404 25 4.023 25 8.78325ZM16.4062 6.43945C16.4062 7.73389 17.4556 8.7832 18.75 8.7832C20.0444 8.7832 21.0938 7.73389 21.0938 6.43945C21.0938 5.14502 20.0444 4.0957 18.75 4.0957C17.4556 4.0957 16.4062 5.14502 16.4062 6.43945Z" fill="#17365B" fill-opacity="0.75"/>
</g>
<defs>
<clipPath id="clip0_83_5780">
<rect width="25" height="25" fill="white" transform="translate(0 0.189453)"/>
</clipPath>
</defs>
</svg>
